<?xml version="1.0" standalone="no"?>
<!DOCTYPE svg PUBLIC "-//W3C//DTD SVG 20010904//EN"
 "http://www.w3.org/TR/2001/REC-SVG-20010904/DTD/svg10.dtd">
<svg version="1.0" xmlns="http://www.w3.org/2000/svg"
 width="129.000000pt" height="48.000000pt" viewBox="0 0 129.000000 48.000000"
 preserveAspectRatio="xMidYMid meet">
<metadata>
Created by potrace 1.10, written by Peter Selinger 2001-2011
</metadata>
<g transform="translate(0.000000,48.000000) scale(0.100000,-0.100000)"
fill="#000000" stroke="none">
<path d="M126 450 c-51 -26 -77 -50 -104 -98 l-22 -39 25 -23 c30 -29 32 -70
5 -95 -26 -24 -25 -43 5 -87 51 -75 162 -113 254 -88 27 7 61 28 88 53 l44 42
-57 43 -56 44 -22 -20 c-32 -29 -62 -35 -96 -19 -26 13 -31 13 -42 0 -10 -12
-9 -18 7 -29 33 -24 83 -28 126 -9 37 17 40 17 59 0 24 -22 18 -32 -34 -56
-79 -36 -174 -15 -229 51 -27 31 -27 33 -10 52 25 27 25 109 0 136 -17 19 -17
21 10 52 53 63 145 86 220 55 61 -26 67 -34 42 -61 l-21 -23 -39 21 c-42 22
-89 20 -124 -6 -16 -11 -17 -17 -7 -29 11 -13 16 -13 42 0 34 16 64 10 96 -19
l22 -20 55 43 55 43 -19 27 c-50 70 -190 100 -273 59z"/>
</g>
</svg>
